<?xml version="1.0" encoding="UTF-8"?>
<svg version="1.1" xmlns="http://www.w3.org/2000/svg" width="512" height="512">
<path d="M0 0 C1.21335526 -0.0087616 2.42671051 -0.01752319 3.67683411 -0.02655029 C7.00168756 -0.04478765 10.32498538 -0.04051368 13.64975166 -0.02465487 C17.12992561 -0.01198984 20.61003339 -0.02373762 24.09020996 -0.03158569 C29.9344475 -0.0406806 35.77836904 -0.02869889 41.62255859 -0.00488281 C48.37791882 0.02232865 55.13252455 0.01351434 61.8878665 -0.01401484 C67.6893012 -0.03670981 73.49050884 -0.03990426 79.29197359 -0.02682149 C82.75631356 -0.01902891 86.22029895 -0.01797948 89.68461609 -0.03450394 C93.54655248 -0.05163849 97.40764478 -0.02788655 101.26953125 0 C102.41770828 -0.01012115 103.56588531 -0.02024231 104.74885559 -0.03067017 C112.48333783 0.07303951 112.48333783 0.07303951 115.87634277 3.06240845 C117.13476562 5.64697266 117.13476562 5.64697266 117.13476562 7.64697266 C118.08738281 7.77974609 119.04 7.91251953 120.02148438 8.04931641 C121.27574219 8.22591797 122.53 8.40251953 123.82226562 8.58447266 C125.06363281 8.75849609 126.305 8.93251953 127.58398438 9.11181641 C131.13476562 9.64697266 131.13476562 9.64697266 133.94726562 10.33837891 C134.66914063 10.44021484 135.39101563 10.54205078 136.13476562 10.64697266 C137.27945313 9.65697266 137.27945313 9.65697266 138.44726562 8.64697266 C141.13476562 6.64697266 141.13476562 6.64697266 144.57226562 6.52197266 C151.73879027 7.86483961 160.46302828 10.91101086 165.57226562 16.14306641 C167.13476562 18.64697266 167.13476562 18.64697266 166.88476562 21.95947266 C166.51351562 23.28978516 166.51351562 23.28978516 166.13476562 24.64697266 C166.98554687 25.03175781 166.98554687 25.03175781 167.85351562 25.42431641 C171.21494139 27.22590248 173.98055661 29.6706464 176.91601562 32.08837891 C180.13357756 34.34860287 182.18359995 34.72792293 186.07226562 34.39697266 C189.13476562 34.64697266 189.13476562 34.64697266 191.57226562 36.58447266 C192.41789062 37.59509766 193.26351563 38.60572266 194.13476562 39.64697266 C194.658125 40.22060547 195.18148438 40.79423828 195.72070312 41.38525391 C217.28782621 66.51436791 217.33939809 102.56100894 217.19726562 133.70947266 C217.19223394 135.65543503 217.18767402 137.60139868 217.18359375 139.54736328 C217.17273558 144.24726552 217.15556575 148.94710433 217.13476562 153.64697266 C217.90820312 153.94603516 218.68164062 154.24509766 219.47851562 154.55322266 C225.83951275 157.17245676 228.20568872 161.14661583 231.11914062 167.11181641 C235.29699884 177.54039327 233.35540676 188.55924834 229.13476562 198.64697266 C224.34046956 207.10261875 216.58267415 214.00711586 207.13476562 216.64697266 C206.01070313 216.66501953 204.88664062 216.68306641 203.72851562 216.70166016 C199.67344475 216.77964229 196.86636363 217.0130185 193.13476562 218.64697266 C189.56802203 223.15677359 187.93396942 228.97007049 186.01611328 234.31982422 C179.74443948 250.87982275 165.16641189 269.20505176 150.50976562 279.14697266 C147.338109 282.48555858 147.88230557 284.22519623 147.98876953 288.65185547 C148.25928373 294.20146785 148.67797495 299.7349289 149.13476562 305.27197266 C149.27785156 307.06441406 149.27785156 307.06441406 149.42382812 308.89306641 C149.65728994 311.81133914 149.8950291 314.72921083 150.13476562 317.64697266 C150.78167358 317.74036423 151.42858154 317.8337558 152.09509277 317.92997742 C161.87144883 319.44306195 171.42920201 321.73446282 181.04101562 324.04150391 C182.85598048 324.47514438 184.67096291 324.90871132 186.48596191 325.34220886 C190.27214657 326.24777405 194.05745392 327.15691105 197.84228516 328.06811523 C202.66100908 329.22752504 207.48275022 330.37381711 212.30536652 331.51691151 C216.0493758 332.40665478 219.79115349 333.30551765 223.53239441 334.20682335 C225.30798041 334.6330374 227.08434448 335.05602501 228.86152649 335.47553444 C249.1048416 340.26218573 266.0419179 346.55568856 278.13476562 364.64697266 C285.84952387 378.21547291 287.61595774 392.86536495 289.17773438 408.11181641 C289.35219927 409.76044566 289.52728544 411.40900928 289.70295715 413.05751038 C290.06656178 416.48503038 290.42494243 419.91303905 290.77905273 423.34155273 C291.23197152 427.72566743 291.69475238 432.10866932 292.16099072 436.49138546 C292.52140538 439.88406116 292.87837188 443.27709208 293.23412514 446.67025948 C293.4037137 448.286992 293.5739609 449.90365558 293.74489403 451.52024651 C293.98249907 453.77562635 294.21587638 456.03140356 294.44799805 458.28735352 C294.58106857 459.56718613 294.7141391 460.84701874 294.85124207 462.16563416 C295.55972992 470.86503835 295.55972992 470.86503835 293.57226562 474.52197266 C291.13476562 476.64697266 291.13476562 476.64697266 287.63476562 477.20947266 C284.13476562 476.64697266 284.13476562 476.64697266 281.69726562 474.83447266 C280.13476562 472.64697266 280.13476562 472.64697266 280.13476562 469.64697266 C237.23476563 469.64697266 194.33476562 469.64697266 150.13476562 469.64697266 C149.80476562 471.29697266 149.47476563 472.94697266 149.13476562 474.64697266 C145.40221114 477.13534231 143.55035628 477.18923817 139.13476562 476.64697266 C136.69726562 474.27197266 136.69726562 474.27197266 135.13476562 471.64697266 C135.13476562 470.98697266 135.13476562 470.32697266 135.13476562 469.64697266 C108.73476563 469.64697266 82.33476562 469.64697266 55.13476562 469.64697266 C54.47476563 471.29697266 53.81476563 472.94697266 53.13476562 474.64697266 C51.13476562 476.64697266 51.13476562 476.64697266 47.75976562 477.02197266 C44.13476562 476.64697266 44.13476562 476.64697266 41.69726562 474.83447266 C40.13476562 472.64697266 40.13476562 472.64697266 40.13476562 469.64697266 C-2.76523438 469.64697266 -45.66523437 469.64697266 -89.86523438 469.64697266 C-90.19523437 471.29697266 -90.52523437 472.94697266 -90.86523438 474.64697266 C-94.59778886 477.13534231 -96.44964372 477.18923817 -100.86523438 476.64697266 C-103.67952533 473.97806261 -104.80114477 472.46996658 -105.10522461 468.56518555 C-104.98348877 467.40752686 -104.86175293 466.24986816 -104.73632812 465.05712891 C-104.67481064 464.41219986 -104.61329315 463.76727081 -104.5499115 463.10279846 C-104.41306302 461.69559597 -104.26618654 460.28934114 -104.11053467 458.88409424 C-103.85775774 456.5787863 -103.63751338 454.272178 -103.42431641 451.96289062 C-103.03935061 447.84221547 -102.62206306 443.72567439 -102.19067383 439.60961914 C-101.92487109 437.056975 -101.66940903 434.5034158 -101.4140625 431.94970703 C-101.24346692 430.30576149 -101.07226543 428.66187869 -100.90039062 427.01806641 C-100.82635513 426.26488632 -100.75231964 425.51170624 -100.67604065 424.73570251 C-100.21768595 420.48154627 -99.59448152 416.57810283 -97.86523438 412.64697266 C-96.35896484 411.99921875 -96.35896484 411.99921875 -94.82226562 411.33837891 C-91.76491408 410.01798463 -91.76491408 410.01798463 -91.20654297 407.76757812 C-90.85953276 405.36626745 -90.67209606 403.00770441 -90.55273438 400.58447266 C-90.43426534 398.94756183 -90.31329019 397.31082988 -90.18945312 395.67431641 C-90.12890747 394.58751587 -90.12890747 394.58751587 -90.06713867 393.47875977 C-89.86523438 391.64697266 -89.86523438 391.64697266 -88.86523438 389.64697266 C-89.48398438 389.37884766 -90.10273437 389.11072266 -90.74023438 388.83447266 C-92.86523438 387.64697266 -92.86523438 387.64697266 -94.86523438 384.64697266 C-94.32137071 373.51136403 -87.11505644 361.66698429 -79.45507812 353.88916016 C-64.36924026 340.82841968 -45.97218413 337.24814913 -27.03320312 332.78369141 C-25.17986288 332.34282844 -23.32661859 331.90156191 -21.47346497 331.45991516 C-17.62791293 330.54469754 -13.78148969 329.63327276 -9.93432617 328.72485352 C-5.00116287 327.5598264 -0.06997524 326.38667287 4.86064625 325.21094036 C8.66975676 324.30328015 12.47967098 323.39903419 16.28986168 322.49592018 C18.11017178 322.06418599 19.93027375 321.63157325 21.75016212 321.1980648 C24.27837954 320.59653493 26.80759755 319.99941666 29.3371582 319.40356445 C30.08669769 319.22440491 30.83623718 319.04524536 31.60848999 318.86065674 C34.52477275 318.17776179 37.12776324 317.64697266 40.13476562 317.64697266 C40.47463143 313.52248416 40.8054502 309.39731587 41.13476562 305.27197266 C41.27785156 303.53753906 41.27785156 303.53753906 41.42382812 301.76806641 C41.60528338 299.47395359 41.77080442 297.17852159 41.91992188 294.88208008 C42.05448999 292.8557595 42.22358204 290.83111236 42.44335938 288.81225586 C42.70762948 285.25640727 42.86099392 282.7462786 40.85351562 279.70751953 C39.0473036 277.83357455 37.1642395 276.2132163 35.13476562 274.58447266 C33.74687899 273.3828926 32.36144202 272.17847701 30.97851562 270.97119141 C29.97691406 270.11533447 29.97691406 270.11533447 28.95507812 269.2421875 C14.00376029 256.13973166 4.33569804 236.84392348 -2.86523438 218.64697266 C-3.73664063 218.57220703 -4.60804688 218.49744141 -5.50585938 218.42041016 C-16.60234651 217.19547326 -26.69532018 214.1300244 -34.40429688 205.63134766 C-41.30357811 196.26013143 -43.79050116 186.14671698 -42.86523438 174.64697266 C-41.45794672 166.42793971 -37.93296248 159.60532037 -31.11523438 154.64697266 C-28.86523437 153.64697266 -28.86523437 153.64697266 -26.86523438 153.64697266 C-26.8696756 152.97870956 -26.87411682 152.31044647 -26.87869263 151.62193298 C-26.92332353 144.596366 -26.95326388 137.57084 -26.97509766 130.54516602 C-26.98508623 127.93154257 -26.99868171 125.3179301 -27.01611328 122.7043457 C-27.33606921 73.45936384 -27.33606921 73.45936384 -9.30273438 54.70947266 C-6.37150805 51.95067141 -3.29840559 49.74036974 0.13476562 47.64697266 C-1.38593816 44.2702304 -3.39351573 41.61388069 -5.67773438 38.70947266 C-12.78458952 29.06999277 -16.81977864 17.67423043 -15.86523438 5.64697266 C-12.62705111 -1.2088419 -6.64367521 -0.05856385 0 0 Z " fill="#020201" transform="translate(160.865234375,17.35302734375)"/>
<path d="M0 0 C0.99773437 0.12117188 1.99546875 0.24234375 3.0234375 0.3671875 C8.01087281 0.95771885 13.00419199 1.48566219 18 2 C19.37406006 2.14405273 19.37406006 2.14405273 20.77587891 2.29101562 C49.51683575 5.19923841 78.64476508 5.37589703 107.27197266 1.36376953 C111.50383043 0.79947133 115.74917802 0.39196119 120 0 C120.13462646 1.02601318 120.13462646 1.02601318 120.27197266 2.07275391 C123.32475817 24.68161497 128.26767006 39.7761557 144.82470703 55.84033203 C146.23386097 57.20921136 147.61792741 58.6037834 149 60 C149.61617187 60.59683594 150.23234375 61.19367188 150.8671875 61.80859375 C152.69153059 65.33775401 152.16703817 68.90381138 151.875 72.75 C151.81860352 73.59546387 151.76220703 74.44092773 151.70410156 75.31201172 C151.09823191 83.34355244 149.87575551 91.16766154 148 99 C147.76071777 100.00812744 147.76071777 100.00812744 147.51660156 101.03662109 C141.98743219 123.51943359 130.94111269 142.32629941 115 159 C114.401875 159.66128906 113.80375 160.32257813 113.1875 161.00390625 C102.75264087 172.13592191 89.79386273 179.78809117 76 186 C75.24074219 186.391875 74.48148437 186.78375 73.69921875 187.1875 C63.53292092 190.24768806 49.2294571 189.48684812 39.83984375 184.6640625 C38.43412109 183.84035156 38.43412109 183.84035156 37 183 C35.81453841 182.36061208 34.62829106 181.72267963 33.44140625 181.0859375 C23.96807549 175.84443527 15.92594267 169.33131115 8 162 C7.09378906 161.17628906 6.18757813 160.35257813 5.25390625 159.50390625 C-14.85918127 140.39490422 -27.59995474 112.69320962 -30.72265625 85.29150391 C-30.9138601 83.71171579 -31.13722265 82.13560128 -31.38671875 80.56396484 C-33.71322772 65.88219598 -33.71322772 65.88219598 -29.8515625 60.3828125 C-27.18772429 57.23585048 -24.16996335 54.62750973 -21 52 C-8.93121174 41.0367496 -4.13399274 27.77169777 -1.8125 12 C-1.63525391 10.84371094 -1.45800781 9.68742187 -1.27539062 8.49609375 C-0.84255828 5.66513627 -0.41764628 2.83323065 0 0 Z " fill="#FACEA2" transform="translate(196,118)"/>
<path d="M0 0 C7.16652465 1.34286695 15.89076266 4.3890382 21 9.62109375 C22.5625 12.125 22.5625 12.125 22.3125 15.4375 C21.94125 16.7678125 21.94125 16.7678125 21.5625 18.125 C22.12710938 18.38539062 22.69171875 18.64578125 23.2734375 18.9140625 C25.78462102 20.24250429 27.93252655 21.77294675 30.1875 23.5 C30.96351563 24.08523437 31.73953125 24.67046875 32.5390625 25.2734375 C34.56823879 27.13025132 35.52900634 28.60238645 36.5625 31.125 C36.2325 31.455 35.9025 31.785 35.5625 32.125 C34.92941125 37.5023464 36.39962085 39.90346869 39.625 44.125 C52.93308024 62.41704557 57.76142839 82.35232879 57.66015625 104.71875 C57.65803383 106.49965027 57.65803383 106.49965027 57.65586853 108.31652832 C57.65029811 112.08604516 57.63775105 115.85550129 57.625 119.625 C57.61998118 122.19010331 57.61541894 124.75520755 57.61132812 127.3203125 C57.60033836 133.58856217 57.58362981 139.85677675 57.5625 146.125 C51.11514971 147.39622104 51.11514971 147.39622104 48.68554688 146.20385742 C47.99041992 145.47453003 47.99041992 145.47453003 47.28125 144.73046875 C46.75265381 144.19212402 46.22405762 143.6537793 45.67944336 143.09912109 C44.8790564 142.21474365 44.8790564 142.21474365 44.0625 141.3125 C43.49861572 140.71518066 42.93473145 140.11786133 42.35375977 139.50244141 C29.92680837 126.09917626 26.18985905 113.63219672 24.35351562 95.63989258 C24.14605849 93.65548894 23.91706393 91.67337413 23.6875 89.69140625 C23.56632813 88.52552979 23.44515625 87.35965332 23.3203125 86.15844727 C22.44728004 82.66378609 21.37481241 81.3209289 18.5625 79.125 C16.53123616 78.78232728 16.53123616 78.78232728 14.4375 79.25 C13.64085937 79.37761719 12.84421875 79.50523438 12.0234375 79.63671875 C9.69986989 80.09774407 7.38082975 80.57588812 5.0625 81.0625 C0.52649989 82.00486281 -4.02729374 82.63829482 -8.625 83.1875 C-9.27082031 83.26669678 -9.91664063 83.34589355 -10.58203125 83.42749023 C-24.09014069 84.98072724 -37.60529222 85.36218817 -51.1875 85.375 C-52.03423279 85.37633942 -52.88096558 85.37767883 -53.75335693 85.37905884 C-72.31951834 85.37273358 -90.5160532 84.20595047 -108.60839844 79.76464844 C-112.15019015 78.96386363 -114.84261036 78.57795158 -118.4375 79.125 C-121.19575669 82.01635404 -121.87310998 84.31466262 -122.24609375 88.23828125 C-122.35091064 89.23206787 -122.45572754 90.22585449 -122.5637207 91.24975586 C-122.66644287 92.30171143 -122.76916504 93.35366699 -122.875 94.4375 C-125.11588648 114.31700322 -129.7025881 126.44798223 -143.4375 141.125 C-144.26121094 142.115 -144.26121094 142.115 -145.1015625 143.125 C-146.5625 144.8125 -146.5625 144.8125 -149.4375 147.125 C-153.1171875 146.76953125 -153.1171875 146.76953125 -156.4375 146.125 C-156.53068788 138.10085755 -156.60150959 130.07694586 -156.64474869 122.05239391 C-156.66551431 118.32517908 -156.69362611 114.59833781 -156.73925781 110.87133789 C-156.7831147 107.26622728 -156.80671972 103.66147315 -156.81700897 100.0561161 C-156.82432972 98.689145 -156.8386229 97.32219067 -156.86042023 95.95537376 C-157.07981484 81.61144827 -153.13896714 69.17249695 -143.3125 58.4375 C-138.12331807 53.53854078 -131.57115965 50.05497692 -125.13671875 47.05078125 C-123.25447147 46.2351606 -123.25447147 46.2351606 -122.4375 44.125 C-121.97884789 41.20150225 -121.97884789 41.20150225 -122.4375 38.125 C-124.32374024 35.98649481 -124.32374024 35.98649481 -126.9375 34.3125 C-134.82587133 28.43532816 -141.62064102 21.81721871 -144.4375 12.125 C-144.4375 10.805 -144.4375 9.485 -144.4375 8.125 C-143.86304736 8.12261165 -143.28859472 8.12022329 -142.69673443 8.11776257 C-128.72569427 8.05865315 -114.75482933 7.98293968 -100.78397655 7.88928509 C-94.02779384 7.84429958 -87.27166417 7.80489142 -80.51538086 7.77856445 C-73.99897602 7.75315661 -67.48277623 7.71227055 -60.96651649 7.66181374 C-58.47658523 7.6450889 -55.98661319 7.63360975 -53.49663353 7.62738609 C-50.01727807 7.61780612 -46.5385328 7.58981963 -43.05932617 7.55737305 C-42.02282928 7.55880814 -40.9863324 7.56024323 -39.91842651 7.5617218 C-38.97191727 7.54918365 -38.02540802 7.53664551 -37.05021667 7.52372742 C-36.22705554 7.51911845 -35.40389441 7.51450949 -34.55578899 7.50976086 C-31.91187119 7.02952606 -31.05618535 6.23705631 -29.4375 4.125 C-29.1075 3.135 -28.7775 2.145 -28.4375 1.125 C-23.19980194 1.54847346 -18.22491273 2.14143195 -13.125 3.4375 C-10.6857486 4.03405131 -10.6857486 4.03405131 -8.4375 4.125 C-2.99641425 0.10896052 -2.99641425 0.10896052 0 0 Z " fill="#CB906D" transform="translate(305.4375,23.875)"/>
<path d="M0 0 C-0.57434196 7.75416136 -1.94123669 15.21514775 -3.5625 22.8125 C-3.94752686 24.65255615 -3.94752686 24.65255615 -4.34033203 26.52978516 C-5.90549926 33.98982943 -7.53224705 41.43578418 -9.17578125 48.87890625 C-9.54429382 50.55555975 -9.91270237 52.23223611 -10.28100586 53.90893555 C-10.99830882 57.17414719 -11.72584809 60.43685254 -12.45922852 63.69848633 C-12.79346977 65.21297877 -13.12738798 66.72754256 -13.4609375 68.2421875 C-13.61689896 68.9233815 -13.77286041 69.6045755 -13.93354797 70.30641174 C-14.8699495 74.60747855 -15.30367315 78.60310769 -15 83 C-14.01 84.485 -14.01 84.485 -13 86 C-7.16163816 86.69473348 -2.5027572 85.10830399 2.890625 83.15625 C3.71705505 82.86770142 4.54348511 82.57915283 5.3949585 82.28186035 C8.01701931 81.36475588 10.63366607 80.43330365 13.25 79.5 C15.88131302 78.56889782 18.51365282 77.64094228 21.14788818 76.71813965 C22.78245754 76.14477365 24.41522994 75.56625317 26.04595947 74.98205566 C29.14837119 73.88788376 31.68439318 73 35 73 C35 91.48 35 109.96 35 129 C-7.9 129 -50.8 129 -95 129 C-95.33 130.65 -95.66 132.3 -96 134 C-99.73255448 136.48836965 -101.58440935 136.54226552 -106 136 C-108.81429096 133.33108995 -109.9359104 131.82299392 -110.23999023 127.91821289 C-110.11825439 126.7605542 -109.99651855 125.60289551 -109.87109375 124.41015625 C-109.80957626 123.7652272 -109.74805878 123.12029816 -109.68467712 122.45582581 C-109.54782865 121.04862331 -109.40095216 119.64236849 -109.24530029 118.23712158 C-108.99252337 115.93181364 -108.77227901 113.62520534 -108.55908203 111.31591797 C-108.17411623 107.19524281 -107.75682869 103.07870174 -107.32543945 98.96264648 C-107.05963671 96.41000234 -106.80417466 93.85644314 -106.54882812 91.30273438 C-106.37823255 89.65878884 -106.20703105 88.01490604 -106.03515625 86.37109375 C-105.96112076 85.61791367 -105.88708527 84.86473358 -105.81080627 84.08872986 C-105.35245158 79.83457361 -104.72924715 75.93113017 -103 72 C-101.99582031 71.56816406 -100.99164063 71.13632812 -99.95703125 70.69140625 C-96.8996797 69.37101197 -96.8996797 69.37101197 -96.34130859 67.12060547 C-95.99429838 64.71929479 -95.80686169 62.36073175 -95.6875 59.9375 C-95.56903097 58.30058917 -95.44805582 56.66385722 -95.32421875 55.02734375 C-95.2636731 53.94054321 -95.2636731 53.94054321 -95.2019043 52.83178711 C-95 51 -95 51 -94 49 C-92.39125 48.566875 -92.39125 48.566875 -90.75 48.125 C-87.89766587 46.98870429 -87.11638234 46.22318024 -85.671875 43.453125 C-84.871711 41.35136088 -84.08178319 39.2456784 -83.30078125 37.13671875 C-78.80955083 26.30651446 -69.59554177 18.83822623 -59.13085938 14.21777344 C-53.75580629 12.12710245 -48.23158595 10.81521162 -42.625 9.5 C-40.80355469 9.05889893 -40.80355469 9.05889893 -38.9453125 8.60888672 C-35.29934796 7.72851267 -31.65010039 6.86304328 -28 6 C-25.88263716 5.49291907 -23.76543818 4.98515327 -21.6484375 4.4765625 C-17.41379532 3.46144264 -13.17699922 2.45606208 -8.9375 1.46142578 C-7.59889542 1.14263008 -6.26561312 0.80092969 -4.9375 0.44091797 C-3 0 -3 0 0 0 Z " fill="#FEE07C" transform="translate(166,358)"/>
<path d="M0 0 C9.10927062 1.475844 18.00416093 3.66278308 26.9375 5.9375 C28.327389 6.2887478 29.71736265 6.63966082 31.10742188 6.99023438 C33.80798407 7.6716065 36.50784102 8.35567857 39.20727539 9.04150391 C43.61067819 10.15433039 48.02046543 11.24009771 52.43310547 12.31567383 C64.91185155 15.64246908 74.95326698 22.56457335 81.62890625 33.72265625 C88.22113071 46.03343687 88.64415658 59.39658507 89.9375 73.0625 C90.28212375 76.63831898 90.63051507 80.21376148 90.98046875 83.7890625 C91.06624176 84.66749313 91.15201477 85.54592377 91.24038696 86.45097351 C92.081279 94.98048465 93.06141633 103.4910337 94.13647461 111.99438477 C94.25128174 112.93338623 94.36608887 113.8723877 94.484375 114.83984375 C94.58459961 115.62738037 94.68482422 116.41491699 94.78808594 117.22631836 C95.08710624 121.14010835 95 125.0748038 95 129 C52.1 129 9.2 129 -35 129 C-35 110.52 -35 92.04 -35 73 C-30.06936137 73.8217731 -25.85012143 74.99887192 -21.22265625 76.72265625 C-19.72473159 77.2666127 -18.22668078 77.81022188 -16.72851562 78.35351562 C-14.3922834 79.20722865 -12.05744719 80.06437073 -9.72485352 80.92797852 C-7.45676786 81.76527476 -5.18394987 82.5885099 -2.91015625 83.41015625 C-2.22139908 83.66950455 -1.53264191 83.92885284 -0.82301331 84.19606018 C3.59368617 85.78025365 7.3197398 86.34169152 12 86 C14.08333333 85.08333333 14.08333333 85.08333333 15 83 C15.59376871 75.97373699 13.78407376 69.27282449 12.3125 62.4375 C12.04139404 61.15278809 11.77028809 59.86807617 11.4909668 58.54443359 C9.64418782 49.82085697 7.69101947 41.12251132 5.69360352 32.43237305 C3.22724198 21.68687738 0.82172213 11.01861257 0 0 Z " fill="#FEE07C" transform="translate(346,358)"/>
<path d="M0 0 C2.31 1.98 4.62 3.96 7 6 C16.93762835 13.98907377 27.59615722 17.18000646 40.125 17.25 C41.47464844 17.2809375 41.47464844 17.2809375 42.8515625 17.3125 C57.24462526 17.39521875 68.80523579 11.60591335 79.06640625 1.79296875 C81 0 81 0 82 0 C82 36.3 82 72.6 82 110 C54.94 110 27.88 110 0 110 C0 73.7 0 37.4 0 0 Z " fill="#E3636C" transform="translate(215,377)"/>
<path d="M0 0 C0.54414551 0.26216309 1.08829102 0.52432617 1.64892578 0.79443359 C4.13919476 1.99164775 6.63205931 3.18335973 9.125 4.375 C10.40890625 4.99375 10.40890625 4.99375 11.71875 5.625 C25.27395252 12.08978889 42.02809726 14.08463039 56.6875 9.4375 C58.48523969 8.68640815 60.25585791 7.86831751 62 7 C63.27199176 6.39162664 64.54413817 5.78357656 65.81640625 5.17578125 C69.24487592 3.51207079 72.62826984 1.77564488 76 0 C77.34288468 9.10032528 78.27576186 18.19185579 78.8125 27.375 C78.91002563 28.72779053 78.91002563 28.72779053 79.00952148 30.10791016 C79.57016456 41.17680902 75.81637326 51.52160779 68.875 60.125 C62.32240887 67.26690339 52.43844651 72.84501636 42.6328125 73.43359375 C41.13038952 73.45696368 39.62746787 73.45777969 38.125 73.4375 C37.33488525 73.42992676 36.54477051 73.42235352 35.73071289 73.41455078 C29.4719684 73.23828436 24.46877412 72.16457092 19 69 C18.23558594 68.5875 17.47117188 68.175 16.68359375 67.75 C7.30300253 62.16291352 0.89033512 53.49662168 -2 43 C-2.49640289 38.60796656 -2.47484698 34.28979684 -2.375 29.875 C-2.36210937 28.69317139 -2.34921875 27.51134277 -2.3359375 26.29370117 C-2.18060198 17.41833909 -1.50084099 8.75043897 0 0 Z " fill="#FBB781" transform="translate(218,308)"/>
<path d="M0 0 C6.73146693 1.22390308 13.34599481 2.47285127 20 4 C20.15557373 4.78310547 20.31114746 5.56621094 20.47143555 6.37304688 C23.16214926 19.90462146 25.85975523 33.43375536 28.6875 46.9375 C29.09114769 48.86848919 29.4947936 50.79947876 29.8984375 52.73046875 C30.0850293 53.6229834 30.27162109 54.51549805 30.46386719 55.43505859 C30.64079102 56.28148926 30.81771484 57.12791992 31 58 C31.16661133 58.79615723 31.33322266 59.59231445 31.50488281 60.41259766 C31.94497561 62.52422302 32.3797576 64.63685803 32.8125 66.75 C33.04582031 67.87921875 33.27914062 69.0084375 33.51953125 70.171875 C34 73 34 73 34 77 C22.37194063 74.41598681 11.20758012 70.03472884 0 66 C0 44.22 0 22.44 0 0 Z " fill="#FCCE62" transform="translate(311,350)"/>
<path d="M0 0 C0 21.78 0 43.56 0 66 C-7.858125 68.7225 -7.858125 68.7225 -15.875 71.5 C-18.35362549 72.36141602 -18.35362549 72.36141602 -20.88232422 73.24023438 C-22.18969438 73.69165037 -23.49714343 74.14283798 -24.8046875 74.59375 C-25.48539307 74.83125977 -26.16609863 75.06876953 -26.86743164 75.31347656 C-31.7718564 77 -31.7718564 77 -34 77 C-33.47206489 69.40677942 -32.36914473 62.12045209 -30.75 54.6875 C-30.53037598 53.65496094 -30.31075195 52.62242187 -30.08447266 51.55859375 C-28.38287424 43.61376411 -26.57442712 35.69410168 -24.74633789 27.77758789 C-22.93881982 19.88951245 -21.4043643 11.96948195 -20 4 C-17.41806023 3.32749476 -14.83467929 2.66182099 -12.25 2 C-11.15558594 1.71382813 -11.15558594 1.71382813 -10.0390625 1.421875 C-6.55428354 0.53484036 -3.61876278 0 0 0 Z " fill="#FCCF63" transform="translate(201,350)"/>
<path d="M0 0 C4.45255178 1.03362809 4.45255178 1.03362809 6.5 3.8125 C8.02832045 13.46602918 5.70818125 24.28456805 4.5625 33.9375 C4.28674213 36.31642614 4.01288132 38.69556508 3.73925781 41.07473755 C3.56342711 42.59697334 3.38589336 44.11901351 3.20654297 45.64083862 C2.64545758 50.41978685 2.16563773 55.19815666 1.80493164 59.99707031 C1.5 61.8125 1.5 61.8125 -0.125 64.4375 C-3.51378834 66.39943009 -5.65476829 66.43048367 -9.5 65.8125 C-12.30572472 63.13720257 -13.43596694 61.63476784 -13.73999023 57.73071289 C-13.55738647 55.99422485 -13.55738647 55.99422485 -13.37109375 54.22265625 C-13.27881752 53.25526268 -13.27881752 53.25526268 -13.18467712 52.26832581 C-13.04782865 50.86112331 -12.90095216 49.45486849 -12.74530029 48.04962158 C-12.49252337 45.74431364 -12.27227901 43.43770534 -12.05908203 41.12841797 C-11.67411623 37.00774281 -11.25682869 32.89120174 -10.82543945 28.77514648 C-10.55963671 26.22250234 -10.30417466 23.66894314 -10.04882812 21.11523438 C-9.87823255 19.47128884 -9.70703105 17.82740604 -9.53515625 16.18359375 C-9.46112076 15.43041367 -9.38708527 14.67723358 -9.31080627 13.90122986 C-8.85193045 9.64223687 -8.20254029 5.75769936 -6.5 1.8125 C-3.5 -0.1875 -3.5 -0.1875 0 0 Z " fill="#020201" transform="translate(69.5,428.1875)"/>
<path d="M0 0 C1.52391024 0.65960294 3.04429195 1.32737618 4.5625 2 C16.44121827 6.57249292 32.15884991 5.287696 44 1 C44.66 0.67 45.32 0.34 46 0 C49.56500476 -0.38750052 51.38480006 -0.39435894 54.4375 1.5625 C56 4 56 4 56.125 7.5 C54.67813346 12.00136258 53.03641438 12.6718454 49 15 C34.37321216 21.05246393 13.72479834 21.99097187 -1 16 C-4.05169152 14.67338888 -6.64599302 13.37952467 -9 11 C-10.25 7.4375 -10.25 7.4375 -10 4 C-7.27869178 -0.24524082 -4.83955301 -0.70393498 0 0 Z " fill="#050403" transform="translate(233,245)"/>
<path d="M0 0 C1.12208862 0.01027222 1.12208862 0.01027222 2.2668457 0.02075195 C8.10272081 0.1902113 12.69161929 1.17699353 17.625 4.4375 C18.25277344 4.81132812 18.88054687 5.18515625 19.52734375 5.5703125 C21.25 6.75 21.25 6.75 23.625 9.4375 C23.76031358 13.3615937 23.53555041 15.42939062 20.875 18.375 C18.13587551 19.66847545 16.62549262 19.87659648 13.625 19.4375 C11.92985863 18.48656703 10.26131892 17.48642238 8.625 16.4375 C3.49852897 14.84019955 -2.57499269 14.2642575 -7.59375 16.3671875 C-8.91811118 17.10577354 -10.23987162 17.84904833 -11.55859375 18.59765625 C-13.375 19.4375 -13.375 19.4375 -16.6875 19.4375 C-19.85066871 18.26050699 -20.87105807 17.44538387 -22.375 14.4375 C-23 12.0625 -23 12.0625 -22.375 9.4375 C-16.37783697 2.43196443 -8.95559286 -0.12587981 0 0 Z " fill="#060504" transform="translate(216.375,156.5625)"/>
<path d="M0 0 C1.703125 1.1796875 1.703125 1.1796875 3.953125 3.8671875 C4.08843858 7.7912812 3.86367541 9.85907812 1.203125 12.8046875 C-1.60912627 14.13269505 -2.958776 14.36990129 -6.046875 13.8671875 C-7.0575 13.2071875 -8.068125 12.5471875 -9.109375 11.8671875 C-14.05369414 8.83784536 -19.44260579 9.06439314 -25.046875 9.8671875 C-27.12241632 10.74311103 -27.12241632 10.74311103 -28.859375 11.9296875 C-32.046875 13.8671875 -32.046875 13.8671875 -35.796875 13.8671875 C-39.046875 12.8671875 -39.046875 12.8671875 -40.984375 11.1171875 C-42.34813662 8.22922171 -42.79680117 7.01687741 -42.046875 3.8671875 C-31.43078345 -8.87212237 -13.35734353 -7.39242294 0 0 Z " fill="#060503" transform="translate(314.046875,162.1328125)"/>
<path d="M0 0 C3.34322423 1.70315197 5.43124569 2.8703093 7.13671875 6.2578125 C9.04467395 12.31837609 9.133964 18.9107819 6.9375 24.89453125 C3.84368753 30.50206634 0.09234328 34.71975635 -6 37 C-8.50117375 37.35460875 -10.46175629 37.26440039 -13 37 C-12.36290312 28.74733003 -11.55591391 20.52981605 -10.5625 12.3125 C-10.44068359 11.23033203 -10.31886719 10.14816406 -10.19335938 9.03320312 C-10.06896484 8.00775391 -9.94457031 6.98230469 -9.81640625 5.92578125 C-9.70756104 5.00192627 -9.59871582 4.07807129 -9.48657227 3.1262207 C-9.32600342 2.42456787 -9.16543457 1.72291504 -9 1 C-5.89046621 -0.5547669 -3.43733239 -0.28644437 0 0 Z " fill="#F7B47F" transform="translate(371,183)"/>
<path d="M0 0 C0.48657227 2.23388672 0.48657227 2.23388672 0.81640625 5.1796875 C0.94080078 6.25476563 1.06519531 7.32984375 1.19335938 8.4375 C1.31517578 9.571875 1.43699219 10.70625 1.5625 11.875 C1.68818359 12.97070312 1.81386719 14.06640625 1.94335938 15.1953125 C2.72709252 22.12170802 3.39935002 29.05547501 4 36 C-1.84605876 36.74630537 -5.17840346 35.36503523 -9.91015625 31.87890625 C-14.53883058 27.71742522 -16.65889275 23.71362998 -17.4375 17.51953125 C-17.78031445 7.35294017 -17.78031445 7.35294017 -15.25 3.25 C-11.01314399 -0.98685601 -5.80638301 -2.9031915 0 0 Z " fill="#F8B47F" transform="translate(150,184)"/>
<path d="M0 0 C14.24713662 5.07344843 14.24713662 5.07344843 18 11 C18 14.52397438 17.68152223 16.24275308 15.3125 18.875 C11.83191407 20.56825802 8.7713623 20.55972995 5.06225586 19.38769531 C2.94824615 18.5458308 0.88119243 17.6350946 -1.1875 16.6875 C-1.89841797 16.37876953 -2.60933594 16.07003906 -3.34179688 15.75195312 C-6.79186727 14.2102942 -9.53237801 12.95097526 -12 10 C-13 6.5625 -13 6.5625 -13 3 C-9.29896161 -1.77553341 -5.38937247 -1.58756708 0 0 Z " fill="#010000" transform="translate(310,25)"/>
<path d="M0 0 C3.94875513 2.45865885 5.66872408 3.98776803 7.125 8.4375 C6.97177911 12.80429526 5.76736304 14.67916436 3 18 C-0.23415916 19.61707958 -3.50375265 19.56822376 -7 19 C-10.14249107 16.97047452 -11.63745366 15.53044369 -12.51171875 11.83984375 C-12.75802839 8.56118881 -12.73398271 6.08469117 -10.85546875 3.30859375 C-7.42328249 0.12997271 -4.53121574 -0.94400328 0 0 Z " fill="#060504" transform="translate(298,183)"/>
<path d="M0 0 C4.27876075 2.45632562 4.27876075 2.45632562 6 5 C6.80921878 8.17374456 6.75359702 10.81878511 6 14 C4.00772296 17.05067422 2.66317126 18.59426669 -0.9375 19.47265625 C-4.88438331 19.7641874 -6.63943293 19.25316411 -9.9375 16.9375 C-12.44488346 13.3663781 -13.15331912 11.36959504 -13 7 C-9.83292036 1.4482957 -6.34307041 -0.73189274 0 0 Z " fill="#060504" transform="translate(220,183)"/>
</svg>
